<?xml version="1.0" standalone="no"?>
<!DOCTYPE svg PUBLIC "-//W3C//DTD SVG 20010904//EN"
 "http://www.w3.org/TR/2001/REC-SVG-20010904/DTD/svg10.dtd">
<svg version="1.0" xmlns="http://www.w3.org/2000/svg"
 width="512.000000pt" height="512.000000pt" viewBox="0 0 512.000000 512.000000"
 preserveAspectRatio="xMidYMid meet">
<metadata>
Created by potrace 1.16, written by Peter Selinger 2001-2019
</metadata>
<g transform="translate(0.000000,512.000000) scale(0.100000,-0.100000)"
fill="#000000" stroke="none">
<path d="M1729 4384 c-148 -26 -262 -89 -335 -184 -24 -30 -214 -291 -424
-580 -255 -353 -387 -543 -401 -580 -144 -378 211 -990 883 -1527 355 -282
800 -522 1183 -638 244 -74 508 -97 675 -60 95 21 205 75 257 124 68 65 844
1147 872 1216 49 118 39 303 -25 473 -57 154 -174 348 -313 522 -90 114 -321
347 -446 452 -652 545 -1449 869 -1926 782z m426 -144 c762 -148 1752 -875
2079 -1525 71 -142 98 -234 103 -350 6 -122 -14 -187 -78 -254 -87 -90 -221
-127 -424 -118 -861 38 -2149 991 -2369 1751 -70 240 -4 417 182 486 30 11 77
25 105 30 78 14 278 4 402 -20z"/>
<path d="M2312 3680 c-106 -22 -154 -92 -134 -194 61 -304 518 -715 958 -862
185 -62 339 -67 414 -14 16 11 36 40 45 64 14 37 15 52 5 100 -51 246 -373
579 -744 770 -208 107 -424 161 -544 136z"/>
</g>
</svg>
