<?xml version="1.0" standalone="no"?>
<!DOCTYPE svg PUBLIC "-//W3C//DTD SVG 20010904//EN"
 "http://www.w3.org/TR/2001/REC-SVG-20010904/DTD/svg10.dtd">
<svg version="1.0" xmlns="http://www.w3.org/2000/svg"
 width="128.000000pt" height="128.000000pt" viewBox="0 0 128.000000 128.000000"
 preserveAspectRatio="xMidYMid meet">

<g transform="translate(0.000000,128.000000) scale(0.100000,-0.100000)"
fill="#000000" stroke="none">
<path d="M181 1130 c18 -25 85 -95 146 -157 62 -61 113 -116 113 -122 0 -14
-39 -34 -55 -27 -8 3 -33 34 -55 71 -47 73 -66 89 -26 21 31 -53 33 -83 7
-128 -11 -18 -22 -53 -26 -78 -9 -56 -21 -79 -80 -158 -66 -87 -69 -121 -20
-217 35 -69 40 -74 64 -69 79 18 151 73 151 116 0 11 -25 44 -55 73 -63 60
-69 88 -34 156 11 22 23 63 26 90 6 54 29 79 71 79 25 0 82 50 82 72 0 15 -74
89 -200 198 -47 41 -98 85 -114 99 -29 25 -29 25 5 -19z m55 -715 c-9 -23 -31
-13 -29 13 1 36 2 37 19 20 10 -9 14 -24 10 -33z"/>
<path d="M517 1079 c40 -20 74 -53 175 -172 55 -63 101 -84 213 -93 90 -7 131
-20 151 -47 16 -22 16 -22 9 8 -7 33 -51 105 -63 105 -4 0 -13 -14 -19 -31 -8
-22 -17 -30 -30 -27 -10 2 -16 11 -15 19 16 63 14 78 -11 103 -34 34 -122 58
-201 55 -61 -2 -66 0 -106 34 -47 40 -98 67 -127 67 -10 0 0 -9 24 -21z"/>
<path d="M439 1058 c-8 -81 65 -198 122 -198 19 0 19 0 1 38 -11 20 -22 55
-26 76 -4 23 -20 51 -36 68 -30 29 -59 37 -61 16z"/>
<path d="M950 1018 c0 -25 -2 -27 -26 -18 -39 15 -40 12 -3 -13 30 -20 34 -29
37 -70 3 -51 22 -56 22 -6 0 29 13 39 25 19 3 -5 11 -10 18 -10 6 0 -3 15 -21
33 -18 18 -32 39 -32 47 0 8 -5 22 -10 30 -8 12 -10 9 -10 -12z"/>
<path d="M740 784 c0 -57 59 -108 197 -167 113 -49 172 -95 174 -135 1 -34 28
43 28 83 1 45 -26 111 -55 137 -34 30 -106 56 -196 72 -48 8 -100 22 -117 31
l-31 16 0 -37z"/>
<path d="M486 751 c-42 -46 2 -87 65 -61 33 14 37 39 11 63 -25 22 -55 21 -76
-2z m62 -8 c-4 -20 -18 -26 -37 -14 -18 12 -5 31 20 31 14 0 19 -6 17 -17z"/>
<path d="M823 589 c0 -82 -29 -107 -152 -133 -102 -21 -123 -37 -41 -30 106 9
155 23 184 53 33 35 43 88 24 126 l-15 27 0 -43z"/>
<path d="M872 557 c3 -41 14 -68 51 -124 73 -114 80 -131 75 -185 -3 -26 -2
-48 2 -48 14 0 70 67 84 102 32 76 8 171 -55 217 -33 25 -147 91 -156 91 -3 0
-4 -24 -1 -53z"/>
<path d="M497 356 c-50 -18 -119 -64 -112 -75 2 -5 20 -12 39 -15 21 -4 55
-25 84 -51 51 -46 84 -55 123 -35 13 7 19 21 19 44 0 26 -6 35 -27 45 l-28 13
23 -22 c25 -24 26 -25 12 -51 -13 -24 -52 -25 -73 -1 -34 38 -9 82 46 82 46 0
76 -25 103 -87 13 -30 36 -65 51 -79 27 -25 75 -32 103 -14 11 7 6 10 -22 10
-20 0 -43 7 -52 15 -16 17 -36 76 -36 110 0 31 -36 83 -72 105 -39 24 -123 26
-181 6z"/>
</g>
</svg>
